<svg xmlns="http://www.w3.org/2000/svg" version="1.1" xmlns:xlink="http://www.w3.org/1999/xlink" xmlns:svgjs="http://svgjs.dev/svgjs" width="128" height="128" viewBox="0 0 128 128"><g transform="matrix(0.8046875,0,0,0.8046875,12.333870967741937,29.544170468110508)"><svg viewBox="0 0 155 103" data-background-color="#ffffff" preserveAspectRatio="xMidYMid meet" height="85" width="128" xmlns="http://www.w3.org/2000/svg" xmlns:xlink="http://www.w3.org/1999/xlink"><g id="tight-bounds" transform="matrix(1,0,0,1,0.25,0.38642564802182733)"><svg viewBox="0 0 154.5 102.22714870395635" height="102.22714870395635" width="154.5"><g><svg viewBox="0 0 154.5 102.22714870395635" height="102.22714870395635" width="154.5"><g><svg viewBox="0 0 154.5 102.22714870395635" height="102.22714870395635" width="154.5"><g id="textblocktransform"><svg viewBox="0 0 154.5 102.22714870395635" height="102.22714870395635" width="154.5" id="textblock"><g><svg viewBox="0 0 154.5 102.22714870395635" height="102.22714870395635" width="154.5"><g transform="matrix(1,0,0,1,0,0)"><svg width="154.5" viewBox="3.3 -24.25 36.650000000000006 24.25" height="102.22714870395635" data-palette-color="#ff574a"><path d="M7.8 0L3.3 0 3.3-23.75 7.8-23.75 7.8 0ZM23.85 0L19.35 0 19.35-14.35Q19.35-17 17.73-18.53 16.1-20.05 13.65-20.05L13.65-20.05Q12-20.05 10.7-19.35 9.4-18.65 8.6-17.4 7.8-16.15 7.8-14.4L7.8-14.4 5.95-15.3Q5.95-18 7.13-20 8.3-22 10.35-23.13 12.4-24.25 14.95-24.25L14.95-24.25Q17.45-24.25 19.48-23.15 21.5-22.05 22.68-20.05 23.85-18.05 23.85-15.3L23.85-15.3 23.85 0ZM39.95 0L35.4 0 35.4-14.35Q35.4-17 33.77-18.53 32.15-20.05 29.75-20.05L29.75-20.05Q28.1-20.05 26.78-19.35 25.45-18.65 24.65-17.4 23.85-16.15 23.85-14.4L23.85-14.4 21.3-15.3Q21.45-18.05 22.78-20.03 24.1-22 26.2-23.13 28.3-24.25 30.8-24.25L30.8-24.25Q33.4-24.25 35.45-23.15 37.5-22.05 38.73-20.05 39.95-18.05 39.95-15.25L39.95-15.25 39.95 0Z" opacity="1" transform="matrix(1,0,0,1,0,0)" fill="#ff574a" class="wordmark-text-0" data-fill-palette-color="primary" id="text-0"></path></svg></g></svg></g></svg></g></svg></g><g></g></svg></g><defs></defs></svg><rect width="154.5" height="102.22714870395635" fill="none" stroke="none" visibility="hidden"></rect></g></svg></g></svg>